<?xml version="1.0" encoding="iso-8859-1"?>
<!-- Generator: Adobe Illustrator 19.0.0, SVG Export Plug-In . SVG Version: 6.00 Build 0)  -->
<svg xmlns="http://www.w3.org/2000/svg" xmlns:xlink="http://www.w3.org/1999/xlink" version="1.1" id="Capa_1" x="0px" y="0px" viewBox="0 0 426.667 426.667" style="enable-background:new 0 0 426.667 426.667;" xml:space="preserve" width="512px" height="512px">
<g>
	<g>
		<g>
			<path d="M234.667,96C264.107,96,288,119.893,288,149.333c0,15.68-6.933,29.653-17.707,39.467l77.44,77.44     C368.533,226.56,384,185.28,384,149.333C384,66.88,317.12,0,234.667,0c-42.24,0-80.32,17.6-107.413,45.76l67.947,67.947     C204.907,102.933,218.987,96,234.667,96z" fill="#333333"/>
			<path d="M328,300.8l-98.667-98.667l-2.347-2.347L48.427,21.333l-27.093,27.2l67.84,67.84c-2.453,10.56-3.84,21.547-3.84,32.96     c0,112,149.333,277.333,149.333,277.333s35.627-39.467,72-92.8l71.467,71.467l27.2-27.2L328,300.8z" fill="#333333"/>
		</g>
	</g>
</g>
<g>
</g>
<g>
</g>
<g>
</g>
<g>
</g>
<g>
</g>
<g>
</g>
<g>
</g>
<g>
</g>
<g>
</g>
<g>
</g>
<g>
</g>
<g>
</g>
<g>
</g>
<g>
</g>
<g>
</g>
</svg>
